<svg version="1.1" id="Layer_1" xmlns="http://www.w3.org/2000/svg" xmlns:xlink="http://www.w3.org/1999/xlink" x="0px" y="0px"
	 width="100%" viewBox="0 0 576 233" enable-background="new 0 0 576 233" xml:space="preserve">
<path fill="none" opacity="1.000000" stroke="none" 

d="M374.000000,234.000000

	C249.371704,234.000000 125.243401,234.000000 1.057549,234.000000 
	C1.057549,156.395737 1.057549,78.791412 1.057549,1.093547 
	C192.878281,1.093547 384.756622,1.093547 576.817505,1.093547 
	C576.817505,78.666321 576.817505,156.333115 576.817505,234.000000 
	C509.458130,234.000000 441.979065,234.000000 374.000000,234.000000 
M312.555756,128.711777 
	C325.327667,128.711777 338.099579,128.711777 351.216187,128.711777 
	C351.216187,111.739059 351.076141,95.427574 351.322083,79.121902 
	C351.378296,75.394203 349.956940,74.023148 346.754089,72.784325 
	C332.359375,67.216560 318.100861,61.297234 303.718689,55.696083 
	C300.792084,54.556313 299.667511,53.085808 299.767883,49.881737 
	C300.011688,42.100353 299.847198,34.306175 299.847198,26.394032 
	C291.702881,26.394032 284.027191,26.394032 276.152802,26.394032 
	C276.152802,34.130962 275.899750,41.462154 276.254089,48.763874 
	C276.445984,52.718372 275.213013,54.624634 271.470612,56.049477 
	C257.048798,61.540306 242.786224,67.447975 228.404892,73.047752 
	C225.682037,74.107994 224.678223,75.509773 224.709320,78.505409 
	C224.870117,93.996254 224.777054,109.489677 224.799850,124.982162 
	C224.801468,126.089371 225.022018,127.196251 225.146683,128.358368 
	C241.168747,128.358368 256.887024,128.358368 273.066528,128.358368 
	C273.066528,115.102966 273.066528,102.195580 273.066528,89.286110 
	C283.282562,89.286110 293.031158,89.286110 303.237427,89.286110 
	C303.237427,102.468483 303.237427,115.376610 303.237427,128.711609 
	C306.321106,128.711609 308.948822,128.711609 312.555756,128.711777 
M70.435852,148.981430 
	C64.305321,148.981430 58.174793,148.981430 51.988251,148.981430 
	C51.988251,167.668884 51.988251,185.999710 51.988251,204.553436 
	C60.891155,204.553436 69.376289,204.828110 77.835297,204.475784 
	C86.208092,204.127045 90.471733,199.662323 91.387199,191.406311 
	C92.216599,183.926544 90.271301,177.913254 84.925117,175.928940 
	C86.151093,173.924393 88.131096,171.581757 89.131500,168.876801 
	C91.725708,161.862457 90.833519,151.268539 79.818855,149.692596 
	C77.038742,149.294830 74.213844,149.210052 70.435852,148.981430 
M156.377197,190.848495 
	C154.911301,192.229691 152.080765,193.815857 152.251312,194.951218 
	C152.660858,197.677658 154.478760,200.192535 155.746841,202.831192 
	C151.997177,204.083862 149.118439,206.634979 149.721939,211.751556 
	C150.336731,216.964096 153.952316,219.526581 158.452362,219.864182 
	C165.356674,220.382156 172.434280,220.614395 179.256104,219.662201 
	C186.681107,218.625809 190.275772,211.982925 188.005447,205.677612 
	C186.260300,200.830856 182.016205,199.741714 177.682922,199.048309 
	C172.755264,198.259781 167.735611,197.998016 162.847122,197.041306 
	C161.318771,196.742203 160.086029,194.932709 158.717957,193.814606 
	C160.244858,193.165222 161.725372,192.135345 163.307922,191.942383 
	C167.088501,191.481445 170.958084,191.688873 174.717285,191.127716 
	C181.008850,190.188553 184.957367,186.548767 185.956406,181.363541 
	C187.338303,174.191177 185.596405,170.043747 178.975754,165.906006 
	C183.138504,165.906006 186.655579,165.906006 190.205933,165.906006 
	C190.205933,164.062225 190.205933,162.644882 190.205933,160.584564 
	C180.954788,161.079147 171.966980,161.158447 163.081833,162.153961 
	C155.111923,163.046921 151.488770,168.179138 150.849609,176.123718 
	C150.353378,182.291962 154.096405,186.166168 156.377197,190.848495 
M470.499969,127.750633 
	C488.452484,127.750633 506.404999,127.750633 524.452637,127.750633 
	C524.452637,125.245071 524.452637,123.212975 524.452637,121.248291 
	C469.845215,121.248291 415.615723,121.248291 361.367126,121.248291 
	C361.367126,123.500320 361.367126,125.414513 361.367126,127.750458 
	C397.599487,127.750458 433.549713,127.750458 470.499969,127.750633 
M146.500061,107.321884 
	C114.890930,107.321884 83.281807,107.321884 51.542866,107.321884 
	C51.542866,109.812408 51.542866,111.840996 51.542866,113.812439 
	C106.142891,113.812439 160.362534,113.812439 214.638672,113.812439 
	C214.638672,111.572556 214.638672,109.663559 214.638672,107.322144 
	C192.071411,107.322144 169.785751,107.322144 146.500061,107.321884 
M478.500031,107.321884 
	C439.441223,107.321884 400.382446,107.321884 361.418518,107.321884 
	C361.418518,110.000656 361.418518,111.908669 361.418518,113.835464 
	C415.975830,113.835464 470.191193,113.835464 524.593872,113.835464 
	C524.593872,111.618736 524.593872,109.707466 524.593872,107.322144 
	C509.403900,107.322144 494.451996,107.322144 478.500031,107.321884 
M103.500000,120.913986 
	C86.220978,120.913986 68.941956,120.913986 51.550644,120.913986 
	C51.550644,123.471985 51.550644,125.493736 51.550644,127.429703 
	C106.167130,127.429703 160.403046,127.429703 214.631134,127.429703 
	C214.631134,125.175369 214.631134,123.253220 214.631134,120.913963 
	C177.731796,120.913963 141.115891,120.913963 103.500000,120.913986 
M320.808929,181.384827 
	C325.657776,183.776871 326.845612,187.863525 325.593689,192.695023 
	C324.346283,197.509415 320.325745,199.337662 315.985504,198.984619 
	C309.335266,198.443710 302.757965,197.006622 294.947723,195.757690 
	C296.271179,198.148514 296.984467,201.610626 298.900146,202.509125 
	C305.961823,205.821259 313.634949,206.467407 321.337982,204.960281 
	C328.705292,203.518829 332.877991,198.454453 333.158020,191.023697 
	C333.499939,181.950882 330.793518,177.973251 322.113861,175.065033 
	C317.548950,173.535538 312.853363,172.373123 308.351227,170.686096 
	C304.245087,169.147476 302.660248,165.747116 303.127045,161.486572 
	C303.575378,157.394180 306.297211,154.980377 310.097015,154.934174 
	C315.329468,154.870575 320.585968,155.580338 325.803558,156.199890 
	C327.476868,156.398590 329.059418,157.361267 330.710236,157.984497 
	C332.059357,153.048050 330.027863,150.417938 325.684296,149.931015 
	C319.657715,149.255402 313.494873,148.275772 307.538483,148.881882 
	C300.253815,149.623154 296.672668,153.805664 295.947998,159.879623 
	C294.986755,167.935760 297.418060,173.136917 304.451141,176.110321 
	C309.465973,178.230469 314.854767,179.466095 320.808929,181.384827 
M380.694092,199.153412 
	C380.694092,200.781555 380.694092,202.409698 380.694092,204.280762 
	C383.216187,204.280762 385.276398,204.280762 387.825012,204.280762 
	C387.825012,195.888947 387.815063,187.781784 387.827850,179.674652 
	C387.840363,171.725922 392.067474,167.064911 399.259216,167.036270 
	C405.812103,167.010178 408.943695,170.886353 408.990204,179.233047 
	C409.036316,187.508835 409.000336,195.785080 409.000336,204.293259 
	C411.523315,204.293259 413.590637,204.293259 415.903076,204.293259 
	C415.903076,193.904495 416.296356,183.771378 415.777863,173.685135 
	C415.367828,165.708679 410.364868,161.564529 402.323273,161.194534 
	C396.181610,160.911987 391.715057,163.922699 387.721100,169.870468 
	C387.721100,161.550034 387.721100,154.503616 387.721100,147.223938 
	C385.229187,147.223938 383.138916,147.223938 380.694397,147.223938 
	C380.694397,164.319763 380.694397,181.272675 380.694092,199.153412 
M208.043716,169.410019 
	C218.046463,163.832443 225.013962,167.852341 225.108810,179.320648 
	C225.177139,187.582245 225.122101,195.844864 225.122101,204.217804 
	C227.790939,204.217804 229.851028,204.217804 232.026779,204.217804 
	C232.026779,193.892517 232.311600,183.905777 231.934937,173.944061 
	C231.643524,166.237106 227.366867,162.285095 219.728287,161.321075 
	C212.970337,160.468170 208.163864,163.700882 203.752380,169.895309 
	C203.752380,161.515121 203.752380,154.437485 203.752380,147.266373 
	C201.339645,147.266373 199.278748,147.266373 197.207947,147.266373 
	C197.207947,166.427582 197.207947,185.304703 197.207947,204.198944 
	C199.602463,204.198944 201.667709,204.198944 203.657791,204.198944 
	C203.797455,203.504425 203.919403,203.178833 203.920151,202.852951 
	C203.938126,195.027893 203.611282,187.181564 204.110474,179.387985 
	C204.316147,176.176453 206.292526,173.078339 208.043716,169.410019 
M471.337524,173.086609 
	C471.153900,178.719299 470.499725,184.384796 470.889526,189.977524 
	C471.589355,200.018585 478.125916,205.610870 488.506317,205.829437 
	C499.196198,206.054535 506.038513,200.668076 507.193817,190.565552 
	C507.718689,185.975723 507.748047,181.239304 507.275055,176.644226 
	C506.329926,167.462662 501.039703,162.175781 492.499268,161.114090 
	C482.115662,159.823242 475.092773,163.601440 471.337524,173.086609 
M461.792053,173.983536 
	C458.539490,164.009140 452.317505,160.119339 441.140533,161.072800 
	C432.055115,161.847839 426.351196,167.503860 425.484589,177.400177 
	C425.067841,182.159042 425.227203,187.076111 425.928680,191.802353 
	C427.316132,201.150604 434.284302,206.127655 444.656525,205.818527 
	C454.571533,205.523026 461.206085,199.989822 461.981232,190.728363 
	C462.422577,185.455399 461.985840,180.108932 461.792053,173.983536 
M239.060760,168.450562 
	C240.879959,168.548309 242.699173,168.646042 244.997238,168.769516 
	C244.997238,176.638901 244.892136,184.425735 245.024811,192.208542 
	C245.177887,201.186493 248.762558,204.879288 257.708344,205.331772 
	C260.003143,205.447845 262.330780,204.997040 264.638397,204.758682 
	C268.916962,204.316711 269.969025,201.859619 269.151886,198.323563 
	C265.336151,198.582626 261.885620,198.933594 258.428436,199.020477 
	C254.584930,199.117081 252.368210,196.770523 252.250641,193.240280 
	C251.981018,185.145218 252.165298,177.035049 252.165298,168.476440 
	C257.771362,168.476440 263.029572,168.476440 268.589508,168.476440 
	C268.768890,166.476151 268.909637,164.906387 269.108673,162.686890 
	C263.205566,162.686890 257.661987,162.686890 251.849762,162.686890 
	C251.849762,158.457001 251.849762,154.846497 251.849762,150.877289 
	C249.457138,151.070984 247.395218,151.237915 244.840469,151.444733 
	C244.840469,155.432861 244.840469,158.999878 244.840469,162.563934 
	C242.243195,162.783813 240.174271,162.958969 238.019547,163.141403 
	C238.019547,164.554840 237.990051,165.547958 238.032104,166.538040 
	C238.052856,167.027145 238.205673,167.510635 239.060760,168.450562 
M344.850983,199.558212 
	C350.867950,206.983322 358.700134,206.306534 366.730621,204.333405 
	C370.781433,203.338074 372.998657,200.947052 371.570526,196.335022 
	C370.887604,196.644943 370.293945,196.933914 369.685577,197.187592 
	C356.797852,202.561844 347.592010,198.715134 348.274536,184.046021 
	C348.359467,182.220581 348.269379,180.380676 348.454651,178.567307 
	C349.409515,169.220932 355.890656,164.979401 365.020660,167.738510 
	C367.135284,168.377533 369.175171,169.263992 372.517456,170.508911 
	C371.302368,167.521469 371.066315,165.031982 369.703888,163.908600 
	C362.225983,157.742859 346.178131,161.467575 343.101715,170.439941 
	C339.856354,179.905060 339.642670,189.662415 344.850983,199.558212 
M105.392578,204.565903 
	C106.285423,203.392487 107.904587,202.246704 107.950447,201.041077 
	C108.203239,194.394318 108.035530,187.732681 108.083046,181.076660 
	C108.125961,175.066330 111.968819,170.157135 117.843277,168.977676 
	C120.531349,168.437973 123.351837,168.557846 126.519737,168.352127 
	C126.334625,166.300232 126.148560,164.237854 125.971550,162.275818 
	C117.357750,160.009109 111.891815,163.443344 107.758118,170.582245 
	C107.758118,167.875107 107.758118,165.167984 107.758118,162.362411 
	C105.388573,162.362411 103.464088,162.362411 101.023224,162.362411 
	C101.023224,175.843460 100.966454,189.109756 101.172516,202.371964 
	C101.184166,203.121246 103.354813,203.836975 105.392578,204.565903 
M524.398743,151.782684 
	C524.398743,150.311768 524.398743,148.840836 524.398743,147.385406 
	C521.920471,147.385406 519.877869,147.385406 517.955566,147.385406 
	C517.955566,166.517349 517.955566,185.261581 517.955566,204.260437 
	C520.108459,204.260437 522.005188,204.260437 524.398376,204.260437 
	C524.398376,186.900299 524.398376,169.812546 524.398743,151.782684 
M140.780197,170.579849 
	C140.780197,167.842270 140.780197,165.104706 140.780197,162.324203 
	C137.987274,162.324203 136.031250,162.324203 133.889069,162.324203 
	C133.889069,176.410156 133.889069,190.293350 133.889069,204.241791 
	C136.264542,204.241791 138.329483,204.241791 140.780838,204.241791 
	C140.780838,193.115494 140.780838,182.338089 140.780197,170.579849 
M136.670700,155.045914 
	C139.710342,155.134369 141.666122,153.714859 141.192581,150.639648 
	C140.981003,149.265564 139.380325,147.237778 138.210815,147.090668 
	C136.623215,146.891006 133.951431,147.760818 133.339294,148.975540 
	C132.173553,151.288788 132.721802,153.909302 136.670700,155.045914 
z"/>
<path fill="#3155B0" opacity="1.000000" stroke="none" 
	d="
M312.066162,128.711700 
	C308.948822,128.711609 306.321106,128.711609 303.237427,128.711609 
	C303.237427,115.376610 303.237427,102.468483 303.237427,89.286110 
	C293.031158,89.286110 283.282562,89.286110 273.066528,89.286110 
	C273.066528,102.195580 273.066528,115.102966 273.066528,128.358368 
	C256.887024,128.358368 241.168747,128.358368 225.146683,128.358368 
	C225.022018,127.196251 224.801468,126.089371 224.799850,124.982162 
	C224.777054,109.489677 224.870117,93.996254 224.709320,78.505409 
	C224.678223,75.509773 225.682037,74.107994 228.404892,73.047752 
	C242.786224,67.447975 257.048798,61.540306 271.470612,56.049477 
	C275.213013,54.624634 276.445984,52.718372 276.254089,48.763874 
	C275.899750,41.462154 276.152802,34.130962 276.152802,26.394032 
	C284.027191,26.394032 291.702881,26.394032 299.847198,26.394032 
	C299.847198,34.306175 300.011688,42.100353 299.767883,49.881737 
	C299.667511,53.085808 300.792084,54.556313 303.718689,55.696083 
	C318.100861,61.297234 332.359375,67.216560 346.754089,72.784325 
	C349.956940,74.023148 351.378296,75.394203 351.322083,79.121902 
	C351.076141,95.427574 351.216187,111.739059 351.216187,128.711777 
	C338.099579,128.711777 325.327667,128.711777 312.066162,128.711700 
M288.376678,30.005306 
	C287.593201,30.000332 286.809692,29.995358 285.128082,30.076946 
	C282.866669,30.076946 280.605255,30.076946 278.172485,30.076946 
	C278.172485,38.053013 278.172485,45.332451 278.172485,53.417267 
	C284.728455,48.910706 291.254639,49.195438 297.753662,53.213840 
	C297.753662,45.137642 297.753662,37.874989 297.753662,30.056757 
	C294.723328,30.056757 291.941162,30.056757 288.376678,30.005306 
M319.379333,95.637772 
	C319.379333,100.915047 319.379333,106.192314 319.379333,111.604301 
	C325.019043,111.604301 330.086029,111.604301 335.236359,111.604301 
	C335.236359,103.959534 335.236359,96.592415 335.236359,89.155807 
	C329.893799,89.155807 324.936707,89.155807 319.379730,89.155807 
	C319.379730,91.117241 319.379730,92.900665 319.379333,95.637772 
M241.840759,89.022339 
	C241.298706,89.515984 240.291962,90.002823 240.284622,90.504295 
	C240.181549,97.548431 240.214615,104.594543 240.214615,111.437218 
	C245.891281,111.437218 250.918121,111.437218 255.876709,111.437218 
	C255.876709,103.809181 255.876709,96.596855 255.876709,88.997665 
	C251.324951,88.997665 247.052368,88.997665 241.840759,89.022339 
M285.427429,57.750896 
	C279.835785,62.615608 283.393097,68.845474 282.277374,74.634354 
	C286.338257,74.634354 289.742767,74.634354 293.605896,74.634354 
	C293.605896,70.608803 293.905182,66.795143 293.526276,63.050102 
	C293.101562,58.852516 290.929260,56.226810 285.427429,57.750896 
z"/>
<path fill="#0F52B7" opacity="1.000000" stroke="none" 
	d="
M70.922691,148.981445 
	C74.213844,149.210052 77.038742,149.294830 79.818855,149.692596 
	C90.833519,151.268539 91.725708,161.862457 89.131500,168.876801 
	C88.131096,171.581757 86.151093,173.924393 84.925117,175.928940 
	C90.271301,177.913254 92.216599,183.926544 91.387199,191.406311 
	C90.471733,199.662323 86.208092,204.127045 77.835297,204.475784 
	C69.376289,204.828110 60.891155,204.553436 51.988251,204.553436 
	C51.988251,185.999710 51.988251,167.668884 51.988251,148.981430 
	C58.174793,148.981430 64.305321,148.981430 70.922691,148.981445 
M58.588837,185.535416 
	C58.588837,189.795364 58.588837,194.055313 58.588837,199.081451 
	C65.252831,198.758835 71.359055,198.807693 77.366768,198.062424 
	C82.096802,197.475662 84.137375,194.045944 84.066536,188.611679 
	C83.993095,182.978546 81.955025,179.801910 77.067184,179.434692 
	C71.023888,178.980652 64.920509,179.326065 58.588596,179.326065 
	C58.588596,181.259903 58.588596,182.905579 58.588837,185.535416 
M83.049072,163.560989 
	C82.919464,159.002426 81.023590,155.621826 76.166946,155.342148 
	C70.410774,155.010666 64.620903,155.264221 58.957230,155.264221 
	C58.957230,161.354248 58.957230,167.083405 58.957230,173.066040 
	C64.286011,173.066040 69.263954,173.238922 74.224777,173.021362 
	C80.147758,172.761627 82.193947,170.599411 83.049072,163.560989 
z"/>
<path fill="#1053B7" opacity="1.000000" stroke="none" 
	d="
M156.743439,190.708191 
	C154.096405,186.166168 150.353378,182.291962 150.849609,176.123718 
	C151.488770,168.179138 155.111923,163.046921 163.081833,162.153961 
	C171.966980,161.158447 180.954788,161.079147 190.205933,160.584564 
	C190.205933,162.644882 190.205933,164.062225 190.205933,165.906006 
	C186.655579,165.906006 183.138504,165.906006 178.975754,165.906006 
	C185.596405,170.043747 187.338303,174.191177 185.956406,181.363541 
	C184.957367,186.548767 181.008850,190.188553 174.717285,191.127716 
	C170.958084,191.688873 167.088501,191.481445 163.307922,191.942383 
	C161.725372,192.135345 160.244858,193.165222 158.717957,193.814606 
	C160.086029,194.932709 161.318771,196.742203 162.847122,197.041306 
	C167.735611,197.998016 172.755264,198.259781 177.682922,199.048309 
	C182.016205,199.741714 186.260300,200.830856 188.005447,205.677612 
	C190.275772,211.982925 186.681107,218.625809 179.256104,219.662201 
	C172.434280,220.614395 165.356674,220.382156 158.452362,219.864182 
	C153.952316,219.526581 150.336731,216.964096 149.721939,211.751556 
	C149.118439,206.634979 151.997177,204.083862 155.746841,202.831192 
	C154.478760,200.192535 152.660858,197.677658 152.251312,194.951218 
	C152.080765,193.815857 154.911301,192.229691 156.743439,190.708191 
M179.039627,172.680954 
	C175.703674,166.325531 165.672989,164.418808 160.414185,169.140457 
	C156.597000,172.567734 156.772751,181.290558 160.720749,184.355209 
	C164.168396,187.031479 172.274994,187.533890 175.854630,185.025085 
	C179.981598,182.132706 180.125656,177.898346 179.039627,172.680954 
M173.387711,203.957764 
	C168.669815,204.130630 163.903168,203.982895 159.266174,204.687881 
	C158.010513,204.878784 156.311539,207.663528 156.338943,209.231094 
	C156.366211,210.791962 158.238174,213.586639 159.420212,213.650833 
	C165.912567,214.003418 172.455048,213.874451 178.944473,213.410034 
	C180.043030,213.331406 181.874466,210.722565 181.742752,209.450989 
	C181.577515,207.855621 179.969727,206.129700 178.542801,205.036911 
	C177.474640,204.218887 175.707855,204.313110 173.387711,203.957764 
z"/>
<path fill="#3A5DB4" opacity="1.000000" stroke="none" 
	d="
M469.999939,127.750549 
	C433.549713,127.750458 397.599487,127.750458 361.367126,127.750458 
	C361.367126,125.414513 361.367126,123.500320 361.367126,121.248291 
	C415.615723,121.248291 469.845215,121.248291 524.452637,121.248291 
	C524.452637,123.212975 524.452637,125.245071 524.452637,127.750633 
	C506.404999,127.750633 488.452484,127.750633 469.999939,127.750549 
z"/>
<path fill="#3C5FB4" opacity="1.000000" stroke="none" 
	d="
M147.000061,107.322014 
	C169.785751,107.322144 192.071411,107.322144 214.638672,107.322144 
	C214.638672,109.663559 214.638672,111.572556 214.638672,113.812439 
	C160.362534,113.812439 106.142891,113.812439 51.542866,113.812439 
	C51.542866,111.840996 51.542866,109.812408 51.542866,107.321884 
	C83.281807,107.321884 114.890930,107.321884 147.000061,107.322014 
z"/>
<path fill="#3C5FB4" opacity="1.000000" stroke="none" 
	d="
M479.000061,107.322014 
	C494.451996,107.322144 509.403900,107.322144 524.593872,107.322144 
	C524.593872,109.707466 524.593872,111.618736 524.593872,113.835464 
	C470.191193,113.835464 415.975830,113.835464 361.418518,113.835464 
	C361.418518,111.908669 361.418518,110.000656 361.418518,107.321884 
	C400.382446,107.321884 439.441223,107.321884 479.000061,107.322014 
z"/>
<path fill="#3A5DB4" opacity="1.000000" stroke="none" 
	d="
M104.000000,120.913971 
	C141.115891,120.913963 177.731796,120.913963 214.631134,120.913963 
	C214.631134,123.253220 214.631134,125.175369 214.631134,127.429703 
	C160.403046,127.429703 106.167130,127.429703 51.550644,127.429703 
	C51.550644,125.493736 51.550644,123.471985 51.550644,120.913986 
	C68.941956,120.913986 86.220978,120.913986 104.000000,120.913971 
z"/>
<path fill="#0E51B7" opacity="1.000000" stroke="none" 
	d="
M320.442810,181.240631 
	C314.854767,179.466095 309.465973,178.230469 304.451141,176.110321 
	C297.418060,173.136917 294.986755,167.935760 295.947998,159.879623 
	C296.672668,153.805664 300.253815,149.623154 307.538483,148.881882 
	C313.494873,148.275772 319.657715,149.255402 325.684296,149.931015 
	C330.027863,150.417938 332.059357,153.048050 330.710236,157.984497 
	C329.059418,157.361267 327.476868,156.398590 325.803558,156.199890 
	C320.585968,155.580338 315.329468,154.870575 310.097015,154.934174 
	C306.297211,154.980377 303.575378,157.394180 303.127045,161.486572 
	C302.660248,165.747116 304.245087,169.147476 308.351227,170.686096 
	C312.853363,172.373123 317.548950,173.535538 322.113861,175.065033 
	C330.793518,177.973251 333.499939,181.950882 333.158020,191.023697 
	C332.877991,198.454453 328.705292,203.518829 321.337982,204.960281 
	C313.634949,206.467407 305.961823,205.821259 298.900146,202.509125 
	C296.984467,201.610626 296.271179,198.148514 294.947723,195.757690 
	C302.757965,197.006622 309.335266,198.443710 315.985504,198.984619 
	C320.325745,199.337662 324.346283,197.509415 325.593689,192.695023 
	C326.845612,187.863525 325.657776,183.776871 320.442810,181.240631 
z"/>
<path fill="#1053B7" opacity="1.000000" stroke="none" 
	d="
M380.694244,198.689499 
	C380.694397,181.272675 380.694397,164.319763 380.694397,147.223938 
	C383.138916,147.223938 385.229187,147.223938 387.721100,147.223938 
	C387.721100,154.503616 387.721100,161.550034 387.721100,169.870468 
	C391.715057,163.922699 396.181610,160.911987 402.323273,161.194534 
	C410.364868,161.564529 415.367828,165.708679 415.777863,173.685135 
	C416.296356,183.771378 415.903076,193.904495 415.903076,204.293259 
	C413.590637,204.293259 411.523315,204.293259 409.000336,204.293259 
	C409.000336,195.785080 409.036316,187.508835 408.990204,179.233047 
	C408.943695,170.886353 405.812103,167.010178 399.259216,167.036270 
	C392.067474,167.064911 387.840363,171.725922 387.827850,179.674652 
	C387.815063,187.781784 387.825012,195.888947 387.825012,204.280762 
	C385.276398,204.280762 383.216187,204.280762 380.694092,204.280762 
	C380.694092,202.409698 380.694092,200.781555 380.694244,198.689499 
z"/>
<path fill="#0E52B7" opacity="1.000000" stroke="none" 
	d="
M207.753616,169.669327 
	C206.292526,173.078339 204.316147,176.176453 204.110474,179.387985 
	C203.611282,187.181564 203.938126,195.027893 203.920151,202.852951 
	C203.919403,203.178833 203.797455,203.504425 203.657791,204.198944 
	C201.667709,204.198944 199.602463,204.198944 197.207947,204.198944 
	C197.207947,185.304703 197.207947,166.427582 197.207947,147.266373 
	C199.278748,147.266373 201.339645,147.266373 203.752380,147.266373 
	C203.752380,154.437485 203.752380,161.515121 203.752380,169.895309 
	C208.163864,163.700882 212.970337,160.468170 219.728287,161.321075 
	C227.366867,162.285095 231.643524,166.237106 231.934937,173.944061 
	C232.311600,183.905777 232.026779,193.892517 232.026779,204.217804 
	C229.851028,204.217804 227.790939,204.217804 225.122101,204.217804 
	C225.122101,195.844864 225.177139,187.582245 225.108810,179.320648 
	C225.013962,167.852341 218.046463,163.832443 207.753616,169.669327 
z"/>
<path fill="#1053B7" opacity="1.000000" stroke="none" 
	d="
M471.479248,172.716461 
	C475.092773,163.601440 482.115662,159.823242 492.499268,161.114090 
	C501.039703,162.175781 506.329926,167.462662 507.275055,176.644226 
	C507.748047,181.239304 507.718689,185.975723 507.193817,190.565552 
	C506.038513,200.668076 499.196198,206.054535 488.506317,205.829437 
	C478.125916,205.610870 471.589355,200.018585 470.889526,189.977524 
	C470.499725,184.384796 471.153900,178.719299 471.479248,172.716461 
M496.739441,197.290070 
	C502.662140,190.754456 500.647949,182.907074 499.950745,175.487946 
	C499.383606,169.453171 495.256897,166.775177 488.621979,166.901703 
	C482.499146,167.018494 478.764648,169.961578 478.022247,175.858200 
	C477.548523,179.620728 477.560669,183.476410 477.698334,187.277893 
	C478.106384,198.544769 485.840576,202.903030 496.739441,197.290070 
z"/>
<path fill="#0F52B7" opacity="1.000000" stroke="none" 
	d="
M461.868286,174.389557 
	C461.985840,180.108932 462.422577,185.455399 461.981232,190.728363 
	C461.206085,199.989822 454.571533,205.523026 444.656525,205.818527 
	C434.284302,206.127655 427.316132,201.150604 425.928680,191.802353 
	C425.227203,187.076111 425.067841,182.159042 425.484589,177.400177 
	C426.351196,167.503860 432.055115,161.847839 441.140533,161.072800 
	C452.317505,160.119339 458.539490,164.009140 461.868286,174.389557 
M445.219513,166.946426 
	C436.376526,167.036423 432.729523,170.304459 432.346954,178.986740 
	C432.172760,182.939926 432.300049,186.969452 432.876160,190.878036 
	C433.763550,196.898239 438.394348,200.271545 444.548767,199.945862 
	C450.417511,199.635300 454.573059,195.896194 455.012604,190.018616 
	C455.333282,185.730728 455.346008,181.387451 455.075012,177.095474 
	C454.694672,171.071609 452.179779,168.469513 445.219513,166.946426 
z"/>
<path fill="#0E51B7" opacity="1.000000" stroke="none" 
	d="
M238.679749,168.223618 
	C238.205673,167.510635 238.052856,167.027145 238.032104,166.538040 
	C237.990051,165.547958 238.019547,164.554840 238.019547,163.141403 
	C240.174271,162.958969 242.243195,162.783813 244.840469,162.563934 
	C244.840469,158.999878 244.840469,155.432861 244.840469,151.444733 
	C247.395218,151.237915 249.457138,151.070984 251.849762,150.877289 
	C251.849762,154.846497 251.849762,158.457001 251.849762,162.686890 
	C257.661987,162.686890 263.205566,162.686890 269.108673,162.686890 
	C268.909637,164.906387 268.768890,166.476151 268.589508,168.476440 
	C263.029572,168.476440 257.771362,168.476440 252.165298,168.476440 
	C252.165298,177.035049 251.981018,185.145218 252.250641,193.240280 
	C252.368210,196.770523 254.584930,199.117081 258.428436,199.020477 
	C261.885620,198.933594 265.336151,198.582626 269.151886,198.323563 
	C269.969025,201.859619 268.916962,204.316711 264.638397,204.758682 
	C262.330780,204.997040 260.003143,205.447845 257.708344,205.331772 
	C248.762558,204.879288 245.177887,201.186493 245.024811,192.208542 
	C244.892136,184.425735 244.997238,176.638901 244.997238,168.769516 
	C242.699173,168.646042 240.879959,168.548309 238.679749,168.223618 
z"/>
<path fill="#1254B8" opacity="1.000000" stroke="none" 
	d="
M344.623901,199.266907 
	C339.642670,189.662415 339.856354,179.905060 343.101715,170.439941 
	C346.178131,161.467575 362.225983,157.742859 369.703888,163.908600 
	C371.066315,165.031982 371.302368,167.521469 372.517456,170.508911 
	C369.175171,169.263992 367.135284,168.377533 365.020660,167.738510 
	C355.890656,164.979401 349.409515,169.220932 348.454651,178.567307 
	C348.269379,180.380676 348.359467,182.220581 348.274536,184.046021 
	C347.592010,198.715134 356.797852,202.561844 369.685577,197.187592 
	C370.293945,196.933914 370.887604,196.644943 371.570526,196.335022 
	C372.998657,200.947052 370.781433,203.338074 366.730621,204.333405 
	C358.700134,206.306534 350.867950,206.983322 344.623901,199.266907 
z"/>
<path fill="#0E52B7" opacity="1.000000" stroke="none" 
	d="
M104.956596,204.567108 
	C103.354813,203.836975 101.184166,203.121246 101.172516,202.371964 
	C100.966454,189.109756 101.023224,175.843460 101.023224,162.362411 
	C103.464088,162.362411 105.388573,162.362411 107.758118,162.362411 
	C107.758118,165.167984 107.758118,167.875107 107.758118,170.582245 
	C111.891815,163.443344 117.357750,160.009109 125.971550,162.275818 
	C126.148560,164.237854 126.334625,166.300232 126.519737,168.352127 
	C123.351837,168.557846 120.531349,168.437973 117.843277,168.977676 
	C111.968819,170.157135 108.125961,175.066330 108.083046,181.076660 
	C108.035530,187.732681 108.203239,194.394318 107.950447,201.041077 
	C107.904587,202.246704 106.285423,203.392487 104.956596,204.567108 
z"/>
<path fill="#074DB5" opacity="1.000000" stroke="none" 
	d="
M524.398560,152.253738 
	C524.398376,169.812546 524.398376,186.900299 524.398376,204.260437 
	C522.005188,204.260437 520.108459,204.260437 517.955566,204.260437 
	C517.955566,185.261581 517.955566,166.517349 517.955566,147.385406 
	C519.877869,147.385406 521.920471,147.385406 524.398743,147.385406 
	C524.398743,148.840836 524.398743,150.311768 524.398560,152.253738 
z"/>
<path fill="#1556B9" opacity="1.000000" stroke="none" 
	d="
M140.780518,171.070267 
	C140.780838,182.338089 140.780838,193.115494 140.780838,204.241791 
	C138.329483,204.241791 136.264542,204.241791 133.889069,204.241791 
	C133.889069,190.293350 133.889069,176.410156 133.889069,162.324203 
	C136.031250,162.324203 137.987274,162.324203 140.780197,162.324203 
	C140.780197,165.104706 140.780197,167.842270 140.780518,171.070267 
z"/>
<path fill="#0A4FB6" opacity="1.000000" stroke="none" 
	d="
M136.263550,154.985260 
	C132.721802,153.909302 132.173553,151.288788 133.339294,148.975540 
	C133.951431,147.760818 136.623215,146.891006 138.210815,147.090668 
	C139.380325,147.237778 140.981003,149.265564 141.192581,150.639648 
	C141.666122,153.714859 139.710342,155.134369 136.263550,154.985260 
z"/>
<path fill="#F1F3FA" opacity="1.000000" stroke="none" 
	d="
M319.379517,95.160927 
	C319.379730,92.900665 319.379730,91.117241 319.379730,89.155807 
	C324.936707,89.155807 329.893799,89.155807 335.236359,89.155807 
	C335.236359,96.592415 335.236359,103.959534 335.236359,111.604301 
	C330.086029,111.604301 325.019043,111.604301 319.379333,111.604301 
	C319.379333,106.192314 319.379333,100.915047 319.379517,95.160927 
z"/>
<path fill="#FAFBFD" opacity="1.000000" stroke="none" 
	d="
M242.310272,89.010002 
	C247.052368,88.997665 251.324951,88.997665 255.876709,88.997665 
	C255.876709,96.596855 255.876709,103.809181 255.876709,111.437218 
	C250.918121,111.437218 245.891281,111.437218 240.214615,111.437218 
	C240.214615,104.594543 240.181549,97.548431 240.284622,90.504295 
	C240.291962,90.002823 241.298706,89.515984 242.310272,89.010002 
z"/>
<path fill="#F7F9FC" opacity="1.000000" stroke="none" 
	d="
M289.158997,30.056757 
	C291.941162,30.056757 294.723328,30.056757 297.753662,30.056757 
	C297.753662,37.874989 297.753662,45.137642 297.753662,53.213840 
	C291.254639,49.195438 284.728455,48.910706 278.172485,53.417267 
	C278.172485,45.332451 278.172485,38.053013 278.172485,30.076946 
	C280.605255,30.076946 282.866669,30.076946 285.503906,30.381744 
	C283.592621,34.913425 281.305573,39.140308 278.732727,43.895344 
	C285.297150,43.895344 291.007904,43.895344 297.118652,43.895344 
	C295.638947,40.963604 294.691895,38.838379 293.525452,36.841259 
	C292.170349,34.521122 290.622955,32.313316 289.158997,30.056757 
z"/>
<path fill="#ECF0F8" opacity="1.000000" stroke="none" 
	d="
M285.778717,57.589157 
	C290.929260,56.226810 293.101562,58.852516 293.526276,63.050102 
	C293.905182,66.795143 293.605896,70.608803 293.605896,74.634354 
	C289.742767,74.634354 286.338257,74.634354 282.277374,74.634354 
	C283.393097,68.845474 279.835785,62.615608 285.778717,57.589157 
z"/>
<path fill="#3E60B5" opacity="1.000000" stroke="none" 
	d="
M288.767822,30.031033 
	C290.622955,32.313316 292.170349,34.521122 293.525452,36.841259 
	C294.691895,38.838379 295.638947,40.963604 297.118652,43.895344 
	C291.007904,43.895344 285.297150,43.895344 278.732727,43.895344 
	C281.305573,39.140308 283.592621,34.913425 285.952942,30.338465 
	C286.809692,29.995358 287.593201,30.000332 288.767822,30.031033 
z"/>
<path fill="#FAFCFE" opacity="1.000000" stroke="none" 
	d="
M58.588715,185.043335 
	C58.588596,182.905579 58.588596,181.259903 58.588596,179.326065 
	C64.920509,179.326065 71.023888,178.980652 77.067184,179.434692 
	C81.955025,179.801910 83.993095,182.978546 84.066536,188.611679 
	C84.137375,194.045944 82.096802,197.475662 77.366768,198.062424 
	C71.359055,198.807693 65.252831,198.758835 58.588837,199.081451 
	C58.588837,194.055313 58.588837,189.795364 58.588715,185.043335 
z"/>
<path fill="#FDFDFE" opacity="1.000000" stroke="none" 
	d="
M83.049278,163.977646 
	C82.193947,170.599411 80.147758,172.761627 74.224777,173.021362 
	C69.263954,173.238922 64.286011,173.066040 58.957230,173.066040 
	C58.957230,167.083405 58.957230,161.354248 58.957230,155.264221 
	C64.620903,155.264221 70.410774,155.010666 76.166946,155.342148 
	C81.023590,155.621826 82.919464,159.002426 83.049278,163.977646 
z"/>
<path fill="#FAFCFE" opacity="1.000000" stroke="none" 
	d="
M179.112335,173.063232 
	C180.125656,177.898346 179.981598,182.132706 175.854630,185.025085 
	C172.274994,187.533890 164.168396,187.031479 160.720749,184.355209 
	C156.772751,181.290558 156.597000,172.567734 160.414185,169.140457 
	C165.672989,164.418808 175.703674,166.325531 179.112335,173.063232 
z"/>
<path fill="#F8FAFD" opacity="1.000000" stroke="none" 
	d="
M173.819916,203.979462 
	C175.707855,204.313110 177.474640,204.218887 178.542801,205.036911 
	C179.969727,206.129700 181.577515,207.855621 181.742752,209.450989 
	C181.874466,210.722565 180.043030,213.331406 178.944473,213.410034 
	C172.455048,213.874451 165.912567,214.003418 159.420212,213.650833 
	C158.238174,213.586639 156.366211,210.791962 156.338943,209.231094 
	C156.311539,207.663528 158.010513,204.878784 159.266174,204.687881 
	C163.903168,203.982895 168.669815,204.130630 173.819916,203.979462 
z"/>
<path fill="#FBFCFE" opacity="1.000000" stroke="none" 
	d="
M496.437988,197.538254 
	C485.840576,202.903030 478.106384,198.544769 477.698334,187.277893 
	C477.560669,183.476410 477.548523,179.620728 478.022247,175.858200 
	C478.764648,169.961578 482.499146,167.018494 488.621979,166.901703 
	C495.256897,166.775177 499.383606,169.453171 499.950745,175.487946 
	C500.647949,182.907074 502.662140,190.754456 496.437988,197.538254 
z"/>
<path fill="#FAFCFE" opacity="1.000000" stroke="none" 
	d="
M445.638855,166.970673 
	C452.179779,168.469513 454.694672,171.071609 455.075012,177.095474 
	C455.346008,181.387451 455.333282,185.730728 455.012604,190.018616 
	C454.573059,195.896194 450.417511,199.635300 444.548767,199.945862 
	C438.394348,200.271545 433.763550,196.898239 432.876160,190.878036 
	C432.300049,186.969452 432.172760,182.939926 432.346954,178.986740 
	C432.729523,170.304459 436.376526,167.036423 445.638855,166.970673 
z"/>
</svg>